<svg xmlns="http://www.w3.org/2000/svg" viewBox="0 0 300 300"><defs><filter id="a" color-interpolation-filters="sRGB"><feGaussianBlur result="result6" stdDeviation="3" in="SourceGraphic"/><feColorMatrix result="result7" values="1 0 0 0 0 0 1 0 0 0 0 0 1 0 0 0 0 0 1 0" in="SourceGraphic"/><feComposite operator="in" in2="result7" in="result6"/></filter><filter id="b" color-interpolation-filters="sRGB"><feGaussianBlur result="result6" stdDeviation="3" in="SourceGraphic"/><feColorMatrix result="result7" values="1 0 0 0 0 0 1 0 0 0 0 0 1 0 0 0 0 0 1 0" in="SourceGraphic"/><feComposite operator="in" in2="result7" in="result6"/></filter></defs><g><path stroke="#000" fill="#f00" d="M118.79 56.74c-17.164 3.665-31.891 1.74-47.259 10.215-14.936 8.236-28.453 20.78-36.585 35.772-7.906 14.576-11.187 32.26-9.756 48.78 1.68 19.404 9.63 38.758 21.138 54.472 12.529 17.107 32.219 30.894 52.069 38.352 24.122 9.063 34.347 4.032 74.761 4.737 13.029.227 23.554-6.006 34.923-12.372 16.75-9.379 34.646-21.432 45.565-37.221 9.075-13.122 14.871-29.981 17.568-45.706 1.833-10.687.875-20.909-1.308-31.53-2.645-12.866-7.404-25.62-14.634-36.585-9.494-14.398-21.183-28.827-36.585-36.585-11.501-5.793-25.339-6.046-38.211-5.691-9.404.26-18.908 5.848-28.137 7.671-10.012 1.978-23.567 3.56-33.547 5.691z"/><path stroke="#ff2a2a" stroke-width=".661" fill="#ff2a2a" d="M146.71 55.98c-11.34 2.421-21.07 1.15-31.225 6.749-9.868 5.442-18.799 13.73-24.172 23.635-5.224 9.63-7.391 21.315-6.446 32.23 1.11 12.82 6.363 25.608 13.966 35.99 8.278 11.303 21.288 20.412 34.402 25.34 15.937 5.988 22.694 2.664 49.395 3.13 8.608.15 15.562-3.968 23.074-8.175 11.067-6.197 22.891-14.16 30.105-24.593 5.996-8.67 9.825-19.809 11.608-30.198 1.211-7.061.578-13.815-.864-20.832-1.748-8.5-4.892-16.928-9.669-24.172-6.273-9.513-13.996-19.046-24.172-24.172-7.599-3.828-16.742-3.995-25.247-3.76-6.213.172-12.493 3.864-18.591 5.069-6.615 1.307-15.571 2.352-22.165 3.76z"/><path stroke="#ff8080" fill="#ff8080" d="M184.4 44.16c-1.633.016-3.266.049-4.875.094-3.454.095-6.912.917-10.375 2 1.163-.166 2.339-.283 3.5-.313 12.823-.33 26.606-.095 38.062 5.281 15.343 7.2 36.438 33.969 36.438 33.969l7.188 1.344s-21.191-28.835-36.594-36.594c-10.063-5.069-21.914-6.153-33.344-6.042z"/></g><g><path stroke="#000" fill="#4a0" d="M119.89 59.84c-2.393-1.348-2.699-4.248-5.423-4.596-4.292-.057-6.966.134-11.347 1.546 0 0 3.109-3.587 4.693-4.105 4.059-1.327 9.6-1.995 13.297.142 6.806 3.933 14.026 12.501 14.026 12.501s-10.54-2.837-15.246-5.488z"/><path stroke="#000" fill="#55d400" d="M145.17 60.13s9.808-14.994 13.558-20.754c4.886-7.506 3.276-15.158 10.246-18.906 1.5-.807 2.776-1.941 3.768-.556 2.368 3.306-2.092 10.236.772 13.123 4.031 4.065 6.403 1.479 6.403 1.479l-3.255 2.005s-4.464.266-4.956-.783c-1.339-2.854.247-11.759-1.567-9.181-3.936 5.593-4.817 7.954-7.777 17.658l-10.289 17.602z"/><path stroke="#000" fill="#4a0" d="M161.32 52.61s8.293-8.62 13.562-12.419c-1.345 10.041-2.163 9.713-4.902 13.726-1.872 2.742-7.517 6.536-7.517 6.536z"/><path stroke="#000" fill="#55d400" d="M46.45 81.2s10.351-20.767 19.772-26.471c5.569-3.372 12.776-3.336 19.282-3.105 8.331.296 24.51 7.353 24.51 7.353l-1.634 1.634s-17.424-5.972-26.471-6.046c-4.316-.035-8.951.231-12.745 2.288-8.921 6.654-15.215 16.152-22.713 24.347z"/><path stroke="#000" fill="#4a0" d="M121.94 31.2s2.961 9.98 3.432 15.85c.41 5.108.817 15.523.817 15.523l13.562 4.902 4.412-4.902-10.948-33.334s-1.951-.857-3.595-.654c-2.3.284-7.68 2.614-7.68 2.614z"/><path stroke="#000" fill="#b3ff80" d="M122.11 31.2s2.566 2.479 4.248 2.451c2.858-.048 6.373-4.085 6.373-4.085s-2.016-1.205-3.758-.98c-2.327.3-6.863 2.615-6.863 2.615z"/><path stroke="#000" fill="#55d400" d="M166.38 39.21c1.371-.535-4.263 5.583-4.95 8.911-1.006 4.872 2.794 10.934.495 15.347-2.185 4.193-6.845 5.119-11.386 6.436-5.873 1.703-11.898-.906-18.012-.839-5.118.056-10.201 2.119-15.156.839-2.809-.725-2.125-4.006-10.386-7.021-4.287-1.565-14.027-3.355-17.982-5.775-2.081-1.72 10.69.749 14.55.613 9.605-.339 13.277.778 22.234 4.262 2.407.936 4.348 3.526 6.931 3.465 4.727-.111 9.95-3.006 13.596-6.016 5.328-4.399 6.61-12.624 12.147-16.756 2.309-1.724 12.08-7.122 7.921-3.465z"/><path filter="url(#a)" stroke="#6f0" fill="#6f0" d="M130.75 34.12l7.808 27.327 2.703-1.502-8.108-27.327z"/><path d="M451.8 455.06l7.808 27.327 2.703-1.502-8.108-27.327z" transform="matrix(.479 .498 -.312 .261 98.6 -301.78)" filter="url(#b)" stroke="#6f0" fill="#6f0"/></g></svg>